<mxfile host="app.diagrams.net" modified="2023-10-24T17:55:40.440Z" agent="Mozilla/5.0 (Windows NT 10.0; Win64; x64) AppleWebKit/537.36 (KHTML, like Gecko) Chrome/118.0.0.0 Safari/537.36" etag="uWswXdVmOaUFb76AvFQ8" version="22.0.7" type="device">
  <diagram id="C5RBs43oDa-KdzZeNtuy" name="Page-1">
    <mxGraphModel dx="1434" dy="750" grid="1" gridSize="10" guides="1" tooltips="1" connect="1" arrows="1" fold="1" page="1" pageScale="1" pageWidth="1654" pageHeight="2336" math="0" shadow="0">
      <root>
        <mxCell id="WIyWlLk6GJQsqaUBKTNV-0" />
        <mxCell id="WIyWlLk6GJQsqaUBKTNV-1" parent="WIyWlLk6GJQsqaUBKTNV-0" />
        <mxCell id="wG51ySAx-2tBN8mzCaiR-0" value="start" style="ellipse;whiteSpace=wrap;html=1;" vertex="1" parent="WIyWlLk6GJQsqaUBKTNV-1">
          <mxGeometry x="340" y="40" width="120" height="80" as="geometry" />
        </mxCell>
        <mxCell id="wG51ySAx-2tBN8mzCaiR-1" value="" style="endArrow=classic;html=1;rounded=0;" edge="1" parent="WIyWlLk6GJQsqaUBKTNV-1">
          <mxGeometry width="50" height="50" relative="1" as="geometry">
            <mxPoint x="399.5" y="120" as="sourcePoint" />
            <mxPoint x="399.5" y="170" as="targetPoint" />
            <Array as="points">
              <mxPoint x="399.5" y="120" />
            </Array>
          </mxGeometry>
        </mxCell>
        <mxCell id="wG51ySAx-2tBN8mzCaiR-2" value="passenger" style="shape=card;whiteSpace=wrap;html=1;" vertex="1" parent="WIyWlLk6GJQsqaUBKTNV-1">
          <mxGeometry x="340" y="170" width="120" height="70" as="geometry" />
        </mxCell>
        <mxCell id="wG51ySAx-2tBN8mzCaiR-3" value="" style="endArrow=classic;html=1;rounded=0;" edge="1" parent="WIyWlLk6GJQsqaUBKTNV-1">
          <mxGeometry width="50" height="50" relative="1" as="geometry">
            <mxPoint x="399.5" y="240" as="sourcePoint" />
            <mxPoint x="399.5" y="300" as="targetPoint" />
          </mxGeometry>
        </mxCell>
        <mxCell id="wG51ySAx-2tBN8mzCaiR-4" value="class" style="shape=card;whiteSpace=wrap;html=1;" vertex="1" parent="WIyWlLk6GJQsqaUBKTNV-1">
          <mxGeometry x="340" y="300" width="120" height="70" as="geometry" />
        </mxCell>
        <mxCell id="wG51ySAx-2tBN8mzCaiR-5" value="" style="endArrow=classic;html=1;rounded=0;" edge="1" parent="WIyWlLk6GJQsqaUBKTNV-1" target="wG51ySAx-2tBN8mzCaiR-6">
          <mxGeometry width="50" height="50" relative="1" as="geometry">
            <mxPoint x="399.5" y="370" as="sourcePoint" />
            <mxPoint x="399.5" y="430" as="targetPoint" />
          </mxGeometry>
        </mxCell>
        <mxCell id="wG51ySAx-2tBN8mzCaiR-6" value="time" style="shape=card;whiteSpace=wrap;html=1;" vertex="1" parent="WIyWlLk6GJQsqaUBKTNV-1">
          <mxGeometry x="334.75" y="440" width="125.25" height="70" as="geometry" />
        </mxCell>
        <mxCell id="wG51ySAx-2tBN8mzCaiR-9" value="" style="endArrow=classic;html=1;rounded=0;" edge="1" parent="WIyWlLk6GJQsqaUBKTNV-1">
          <mxGeometry width="50" height="50" relative="1" as="geometry">
            <mxPoint x="399.5" y="510" as="sourcePoint" />
            <mxPoint x="399.5" y="570" as="targetPoint" />
          </mxGeometry>
        </mxCell>
        <mxCell id="wG51ySAx-2tBN8mzCaiR-24" style="edgeStyle=orthogonalEdgeStyle;rounded=0;orthogonalLoop=1;jettySize=auto;html=1;exitX=1;exitY=0.5;exitDx=0;exitDy=0;" edge="1" parent="WIyWlLk6GJQsqaUBKTNV-1" source="wG51ySAx-2tBN8mzCaiR-10">
          <mxGeometry relative="1" as="geometry">
            <mxPoint x="760" y="610" as="targetPoint" />
          </mxGeometry>
        </mxCell>
        <mxCell id="wG51ySAx-2tBN8mzCaiR-10" value="c==first class" style="rhombus;whiteSpace=wrap;html=1;" vertex="1" parent="WIyWlLk6GJQsqaUBKTNV-1">
          <mxGeometry x="336.25" y="570" width="127.5" height="80" as="geometry" />
        </mxCell>
        <mxCell id="wG51ySAx-2tBN8mzCaiR-12" value="" style="endArrow=classic;html=1;rounded=0;" edge="1" parent="WIyWlLk6GJQsqaUBKTNV-1">
          <mxGeometry width="50" height="50" relative="1" as="geometry">
            <mxPoint x="399.5" y="650" as="sourcePoint" />
            <mxPoint x="399.5" y="720" as="targetPoint" />
          </mxGeometry>
        </mxCell>
        <mxCell id="wG51ySAx-2tBN8mzCaiR-13" value="t==morning" style="rhombus;whiteSpace=wrap;html=1;" vertex="1" parent="WIyWlLk6GJQsqaUBKTNV-1">
          <mxGeometry x="336.25" y="720" width="130" height="80" as="geometry" />
        </mxCell>
        <mxCell id="wG51ySAx-2tBN8mzCaiR-14" value="" style="endArrow=classic;html=1;rounded=0;" edge="1" parent="WIyWlLk6GJQsqaUBKTNV-1">
          <mxGeometry width="50" height="50" relative="1" as="geometry">
            <mxPoint x="399.5" y="800" as="sourcePoint" />
            <mxPoint x="399.5" y="870" as="targetPoint" />
          </mxGeometry>
        </mxCell>
        <mxCell id="wG51ySAx-2tBN8mzCaiR-15" value="t==afternoon" style="rhombus;whiteSpace=wrap;html=1;" vertex="1" parent="WIyWlLk6GJQsqaUBKTNV-1">
          <mxGeometry x="330" y="870" width="140" height="80" as="geometry" />
        </mxCell>
        <mxCell id="wG51ySAx-2tBN8mzCaiR-18" value="" style="endArrow=classic;html=1;rounded=0;" edge="1" parent="WIyWlLk6GJQsqaUBKTNV-1">
          <mxGeometry width="50" height="50" relative="1" as="geometry">
            <mxPoint x="466.25" y="759.5" as="sourcePoint" />
            <mxPoint x="536.25" y="759.5" as="targetPoint" />
          </mxGeometry>
        </mxCell>
        <mxCell id="wG51ySAx-2tBN8mzCaiR-19" value="" style="endArrow=classic;html=1;rounded=0;" edge="1" parent="WIyWlLk6GJQsqaUBKTNV-1">
          <mxGeometry width="50" height="50" relative="1" as="geometry">
            <mxPoint x="470" y="909.5" as="sourcePoint" />
            <mxPoint x="540" y="909.5" as="targetPoint" />
          </mxGeometry>
        </mxCell>
        <mxCell id="wG51ySAx-2tBN8mzCaiR-21" value="pr=100*p" style="rounded=0;whiteSpace=wrap;html=1;" vertex="1" parent="WIyWlLk6GJQsqaUBKTNV-1">
          <mxGeometry x="540" y="730" width="120" height="60" as="geometry" />
        </mxCell>
        <mxCell id="wG51ySAx-2tBN8mzCaiR-22" value="pr=90*p" style="rounded=0;whiteSpace=wrap;html=1;" vertex="1" parent="WIyWlLk6GJQsqaUBKTNV-1">
          <mxGeometry x="540" y="880" width="120" height="60" as="geometry" />
        </mxCell>
        <mxCell id="wG51ySAx-2tBN8mzCaiR-26" style="edgeStyle=orthogonalEdgeStyle;rounded=0;orthogonalLoop=1;jettySize=auto;html=1;exitX=0.5;exitY=1;exitDx=0;exitDy=0;" edge="1" parent="WIyWlLk6GJQsqaUBKTNV-1" source="wG51ySAx-2tBN8mzCaiR-25">
          <mxGeometry relative="1" as="geometry">
            <mxPoint x="830" y="720" as="targetPoint" />
          </mxGeometry>
        </mxCell>
        <mxCell id="wG51ySAx-2tBN8mzCaiR-32" style="edgeStyle=orthogonalEdgeStyle;rounded=0;orthogonalLoop=1;jettySize=auto;html=1;exitX=1;exitY=0.5;exitDx=0;exitDy=0;" edge="1" parent="WIyWlLk6GJQsqaUBKTNV-1" source="wG51ySAx-2tBN8mzCaiR-25">
          <mxGeometry relative="1" as="geometry">
            <mxPoint x="1020" y="610" as="targetPoint" />
          </mxGeometry>
        </mxCell>
        <mxCell id="wG51ySAx-2tBN8mzCaiR-25" value="t==morning" style="rhombus;whiteSpace=wrap;html=1;" vertex="1" parent="WIyWlLk6GJQsqaUBKTNV-1">
          <mxGeometry x="760" y="570" width="140" height="80" as="geometry" />
        </mxCell>
        <mxCell id="wG51ySAx-2tBN8mzCaiR-31" style="edgeStyle=orthogonalEdgeStyle;rounded=0;orthogonalLoop=1;jettySize=auto;html=1;exitX=1;exitY=0.5;exitDx=0;exitDy=0;" edge="1" parent="WIyWlLk6GJQsqaUBKTNV-1" source="wG51ySAx-2tBN8mzCaiR-27">
          <mxGeometry relative="1" as="geometry">
            <mxPoint x="1020" y="760" as="targetPoint" />
          </mxGeometry>
        </mxCell>
        <mxCell id="wG51ySAx-2tBN8mzCaiR-27" value="t==afternoon" style="rhombus;whiteSpace=wrap;html=1;" vertex="1" parent="WIyWlLk6GJQsqaUBKTNV-1">
          <mxGeometry x="755" y="720" width="150" height="80" as="geometry" />
        </mxCell>
        <mxCell id="wG51ySAx-2tBN8mzCaiR-29" value="" style="endArrow=none;html=1;rounded=0;" edge="1" parent="WIyWlLk6GJQsqaUBKTNV-1">
          <mxGeometry width="50" height="50" relative="1" as="geometry">
            <mxPoint x="829.5" y="890" as="sourcePoint" />
            <mxPoint x="829.5" y="800" as="targetPoint" />
          </mxGeometry>
        </mxCell>
        <mxCell id="wG51ySAx-2tBN8mzCaiR-35" value="" style="endArrow=classic;html=1;rounded=0;" edge="1" parent="WIyWlLk6GJQsqaUBKTNV-1">
          <mxGeometry width="50" height="50" relative="1" as="geometry">
            <mxPoint x="830" y="890" as="sourcePoint" />
            <mxPoint x="1020" y="890" as="targetPoint" />
          </mxGeometry>
        </mxCell>
        <mxCell id="wG51ySAx-2tBN8mzCaiR-36" value="pr=150*p" style="rounded=0;whiteSpace=wrap;html=1;" vertex="1" parent="WIyWlLk6GJQsqaUBKTNV-1">
          <mxGeometry x="1020" y="580" width="120" height="60" as="geometry" />
        </mxCell>
        <mxCell id="wG51ySAx-2tBN8mzCaiR-37" value="pr=140*p" style="rounded=0;whiteSpace=wrap;html=1;" vertex="1" parent="WIyWlLk6GJQsqaUBKTNV-1">
          <mxGeometry x="1020" y="730" width="120" height="60" as="geometry" />
        </mxCell>
        <mxCell id="wG51ySAx-2tBN8mzCaiR-38" value="pr120*p" style="rounded=0;whiteSpace=wrap;html=1;" vertex="1" parent="WIyWlLk6GJQsqaUBKTNV-1">
          <mxGeometry x="1020" y="860" width="120" height="60" as="geometry" />
        </mxCell>
        <mxCell id="wG51ySAx-2tBN8mzCaiR-40" value="" style="endArrow=none;html=1;rounded=0;" edge="1" parent="WIyWlLk6GJQsqaUBKTNV-1">
          <mxGeometry width="50" height="50" relative="1" as="geometry">
            <mxPoint x="1140" y="609.5" as="sourcePoint" />
            <mxPoint x="1200" y="610" as="targetPoint" />
          </mxGeometry>
        </mxCell>
        <mxCell id="wG51ySAx-2tBN8mzCaiR-41" value="" style="endArrow=none;html=1;rounded=0;" edge="1" parent="WIyWlLk6GJQsqaUBKTNV-1">
          <mxGeometry width="50" height="50" relative="1" as="geometry">
            <mxPoint x="1140" y="759.5" as="sourcePoint" />
            <mxPoint x="1200" y="760" as="targetPoint" />
          </mxGeometry>
        </mxCell>
        <mxCell id="wG51ySAx-2tBN8mzCaiR-42" value="" style="endArrow=none;html=1;rounded=0;" edge="1" parent="WIyWlLk6GJQsqaUBKTNV-1">
          <mxGeometry width="50" height="50" relative="1" as="geometry">
            <mxPoint x="1140" y="889.5" as="sourcePoint" />
            <mxPoint x="1200" y="890" as="targetPoint" />
          </mxGeometry>
        </mxCell>
        <mxCell id="wG51ySAx-2tBN8mzCaiR-43" value="" style="endArrow=none;html=1;rounded=0;" edge="1" parent="WIyWlLk6GJQsqaUBKTNV-1">
          <mxGeometry width="50" height="50" relative="1" as="geometry">
            <mxPoint x="1200" y="610" as="sourcePoint" />
            <mxPoint x="1200" y="1160" as="targetPoint" />
          </mxGeometry>
        </mxCell>
        <mxCell id="wG51ySAx-2tBN8mzCaiR-44" value="" style="endArrow=none;html=1;rounded=0;" edge="1" parent="WIyWlLk6GJQsqaUBKTNV-1">
          <mxGeometry width="50" height="50" relative="1" as="geometry">
            <mxPoint x="400.75" y="950" as="sourcePoint" />
            <mxPoint x="400.75" y="1040" as="targetPoint" />
          </mxGeometry>
        </mxCell>
        <mxCell id="wG51ySAx-2tBN8mzCaiR-45" value="" style="endArrow=classic;html=1;rounded=0;" edge="1" parent="WIyWlLk6GJQsqaUBKTNV-1">
          <mxGeometry width="50" height="50" relative="1" as="geometry">
            <mxPoint x="400" y="1040" as="sourcePoint" />
            <mxPoint x="540" y="1040" as="targetPoint" />
          </mxGeometry>
        </mxCell>
        <mxCell id="wG51ySAx-2tBN8mzCaiR-46" value="pr=70*p" style="rounded=0;whiteSpace=wrap;html=1;" vertex="1" parent="WIyWlLk6GJQsqaUBKTNV-1">
          <mxGeometry x="540" y="1010" width="120" height="60" as="geometry" />
        </mxCell>
        <mxCell id="wG51ySAx-2tBN8mzCaiR-47" value="" style="endArrow=none;html=1;rounded=0;" edge="1" parent="WIyWlLk6GJQsqaUBKTNV-1">
          <mxGeometry width="50" height="50" relative="1" as="geometry">
            <mxPoint x="660" y="759.5" as="sourcePoint" />
            <mxPoint x="700" y="760" as="targetPoint" />
          </mxGeometry>
        </mxCell>
        <mxCell id="wG51ySAx-2tBN8mzCaiR-48" value="" style="endArrow=none;html=1;rounded=0;" edge="1" parent="WIyWlLk6GJQsqaUBKTNV-1">
          <mxGeometry width="50" height="50" relative="1" as="geometry">
            <mxPoint x="660" y="909.5" as="sourcePoint" />
            <mxPoint x="700" y="910" as="targetPoint" />
          </mxGeometry>
        </mxCell>
        <mxCell id="wG51ySAx-2tBN8mzCaiR-49" value="" style="endArrow=none;html=1;rounded=0;" edge="1" parent="WIyWlLk6GJQsqaUBKTNV-1">
          <mxGeometry width="50" height="50" relative="1" as="geometry">
            <mxPoint x="660" y="1039.5" as="sourcePoint" />
            <mxPoint x="700" y="1039.5" as="targetPoint" />
          </mxGeometry>
        </mxCell>
        <mxCell id="wG51ySAx-2tBN8mzCaiR-50" value="" style="endArrow=none;html=1;rounded=0;" edge="1" parent="WIyWlLk6GJQsqaUBKTNV-1">
          <mxGeometry width="50" height="50" relative="1" as="geometry">
            <mxPoint x="700" y="760" as="sourcePoint" />
            <mxPoint x="700" y="1160" as="targetPoint" />
          </mxGeometry>
        </mxCell>
        <mxCell id="wG51ySAx-2tBN8mzCaiR-51" value="" style="endArrow=none;html=1;rounded=0;" edge="1" parent="WIyWlLk6GJQsqaUBKTNV-1">
          <mxGeometry width="50" height="50" relative="1" as="geometry">
            <mxPoint x="700" y="1160" as="sourcePoint" />
            <mxPoint x="1200" y="1160" as="targetPoint" />
          </mxGeometry>
        </mxCell>
        <mxCell id="wG51ySAx-2tBN8mzCaiR-52" value="" style="endArrow=classic;html=1;rounded=0;" edge="1" parent="WIyWlLk6GJQsqaUBKTNV-1">
          <mxGeometry width="50" height="50" relative="1" as="geometry">
            <mxPoint x="950" y="1160" as="sourcePoint" />
            <mxPoint x="950" y="1240" as="targetPoint" />
          </mxGeometry>
        </mxCell>
        <mxCell id="wG51ySAx-2tBN8mzCaiR-53" value="p&amp;gt;2" style="rhombus;whiteSpace=wrap;html=1;" vertex="1" parent="WIyWlLk6GJQsqaUBKTNV-1">
          <mxGeometry x="870" y="1240" width="160" height="80" as="geometry" />
        </mxCell>
        <mxCell id="wG51ySAx-2tBN8mzCaiR-54" value="" style="endArrow=none;html=1;rounded=0;" edge="1" parent="WIyWlLk6GJQsqaUBKTNV-1">
          <mxGeometry width="50" height="50" relative="1" as="geometry">
            <mxPoint x="870" y="1279.5" as="sourcePoint" />
            <mxPoint x="800" y="1279.5" as="targetPoint" />
          </mxGeometry>
        </mxCell>
        <mxCell id="wG51ySAx-2tBN8mzCaiR-55" value="" style="endArrow=none;html=1;rounded=0;" edge="1" parent="WIyWlLk6GJQsqaUBKTNV-1">
          <mxGeometry width="50" height="50" relative="1" as="geometry">
            <mxPoint x="1030" y="1280" as="sourcePoint" />
            <mxPoint x="1110" y="1280" as="targetPoint" />
          </mxGeometry>
        </mxCell>
        <mxCell id="wG51ySAx-2tBN8mzCaiR-56" value="" style="endArrow=classic;html=1;rounded=0;" edge="1" parent="WIyWlLk6GJQsqaUBKTNV-1">
          <mxGeometry width="50" height="50" relative="1" as="geometry">
            <mxPoint x="1110" y="1280" as="sourcePoint" />
            <mxPoint x="1110" y="1350" as="targetPoint" />
          </mxGeometry>
        </mxCell>
        <mxCell id="wG51ySAx-2tBN8mzCaiR-57" value="pr=pr*0.85" style="rounded=0;whiteSpace=wrap;html=1;" vertex="1" parent="WIyWlLk6GJQsqaUBKTNV-1">
          <mxGeometry x="1050" y="1350" width="120" height="60" as="geometry" />
        </mxCell>
        <mxCell id="wG51ySAx-2tBN8mzCaiR-58" value="" style="endArrow=none;html=1;rounded=0;" edge="1" parent="WIyWlLk6GJQsqaUBKTNV-1">
          <mxGeometry width="50" height="50" relative="1" as="geometry">
            <mxPoint x="800" y="1280" as="sourcePoint" />
            <mxPoint x="800" y="1480" as="targetPoint" />
          </mxGeometry>
        </mxCell>
        <mxCell id="wG51ySAx-2tBN8mzCaiR-59" value="" style="endArrow=none;html=1;rounded=0;" edge="1" parent="WIyWlLk6GJQsqaUBKTNV-1">
          <mxGeometry width="50" height="50" relative="1" as="geometry">
            <mxPoint x="1110" y="1410" as="sourcePoint" />
            <mxPoint x="1110" y="1480" as="targetPoint" />
          </mxGeometry>
        </mxCell>
        <mxCell id="wG51ySAx-2tBN8mzCaiR-61" value="" style="endArrow=none;html=1;rounded=0;" edge="1" parent="WIyWlLk6GJQsqaUBKTNV-1">
          <mxGeometry width="50" height="50" relative="1" as="geometry">
            <mxPoint x="800" y="1480" as="sourcePoint" />
            <mxPoint x="1110" y="1480" as="targetPoint" />
          </mxGeometry>
        </mxCell>
        <mxCell id="wG51ySAx-2tBN8mzCaiR-63" value="" style="endArrow=classic;html=1;rounded=0;" edge="1" parent="WIyWlLk6GJQsqaUBKTNV-1">
          <mxGeometry width="50" height="50" relative="1" as="geometry">
            <mxPoint x="960" y="1480" as="sourcePoint" />
            <mxPoint x="960" y="1540" as="targetPoint" />
          </mxGeometry>
        </mxCell>
        <mxCell id="wG51ySAx-2tBN8mzCaiR-64" value="price" style="shape=document;whiteSpace=wrap;html=1;boundedLbl=1;" vertex="1" parent="WIyWlLk6GJQsqaUBKTNV-1">
          <mxGeometry x="900" y="1540" width="120" height="80" as="geometry" />
        </mxCell>
        <mxCell id="wG51ySAx-2tBN8mzCaiR-65" value="" style="endArrow=classic;html=1;rounded=0;" edge="1" parent="WIyWlLk6GJQsqaUBKTNV-1">
          <mxGeometry width="50" height="50" relative="1" as="geometry">
            <mxPoint x="960" y="1620" as="sourcePoint" />
            <mxPoint x="960" y="1680" as="targetPoint" />
          </mxGeometry>
        </mxCell>
        <mxCell id="wG51ySAx-2tBN8mzCaiR-66" value="stop" style="ellipse;whiteSpace=wrap;html=1;" vertex="1" parent="WIyWlLk6GJQsqaUBKTNV-1">
          <mxGeometry x="900" y="1680" width="120" height="80" as="geometry" />
        </mxCell>
        <mxCell id="wG51ySAx-2tBN8mzCaiR-67" value="T" style="text;html=1;align=center;verticalAlign=middle;resizable=0;points=[];autosize=1;strokeColor=none;fillColor=none;" vertex="1" parent="WIyWlLk6GJQsqaUBKTNV-1">
          <mxGeometry x="455" y="588" width="30" height="30" as="geometry" />
        </mxCell>
        <mxCell id="wG51ySAx-2tBN8mzCaiR-68" value="T" style="text;html=1;align=center;verticalAlign=middle;resizable=0;points=[];autosize=1;strokeColor=none;fillColor=none;" vertex="1" parent="WIyWlLk6GJQsqaUBKTNV-1">
          <mxGeometry x="455" y="738" width="30" height="30" as="geometry" />
        </mxCell>
        <mxCell id="wG51ySAx-2tBN8mzCaiR-69" value="T" style="text;html=1;align=center;verticalAlign=middle;resizable=0;points=[];autosize=1;strokeColor=none;fillColor=none;" vertex="1" parent="WIyWlLk6GJQsqaUBKTNV-1">
          <mxGeometry x="465" y="888" width="30" height="30" as="geometry" />
        </mxCell>
        <mxCell id="wG51ySAx-2tBN8mzCaiR-71" value="T" style="text;html=1;align=center;verticalAlign=middle;resizable=0;points=[];autosize=1;strokeColor=none;fillColor=none;" vertex="1" parent="WIyWlLk6GJQsqaUBKTNV-1">
          <mxGeometry x="895" y="588" width="30" height="30" as="geometry" />
        </mxCell>
        <mxCell id="wG51ySAx-2tBN8mzCaiR-72" value="T" style="text;html=1;align=center;verticalAlign=middle;resizable=0;points=[];autosize=1;strokeColor=none;fillColor=none;" vertex="1" parent="WIyWlLk6GJQsqaUBKTNV-1">
          <mxGeometry x="895" y="738" width="30" height="30" as="geometry" />
        </mxCell>
        <mxCell id="wG51ySAx-2tBN8mzCaiR-73" value="F" style="text;html=1;align=center;verticalAlign=middle;resizable=0;points=[];autosize=1;strokeColor=none;fillColor=none;" vertex="1" parent="WIyWlLk6GJQsqaUBKTNV-1">
          <mxGeometry x="825" y="788" width="30" height="30" as="geometry" />
        </mxCell>
        <mxCell id="wG51ySAx-2tBN8mzCaiR-74" value="F" style="text;html=1;align=center;verticalAlign=middle;resizable=0;points=[];autosize=1;strokeColor=none;fillColor=none;" vertex="1" parent="WIyWlLk6GJQsqaUBKTNV-1">
          <mxGeometry x="825" y="638" width="30" height="30" as="geometry" />
        </mxCell>
        <mxCell id="wG51ySAx-2tBN8mzCaiR-75" value="F" style="text;html=1;align=center;verticalAlign=middle;resizable=0;points=[];autosize=1;strokeColor=none;fillColor=none;" vertex="1" parent="WIyWlLk6GJQsqaUBKTNV-1">
          <mxGeometry x="395" y="638" width="30" height="30" as="geometry" />
        </mxCell>
        <mxCell id="wG51ySAx-2tBN8mzCaiR-76" value="F" style="text;html=1;align=center;verticalAlign=middle;resizable=0;points=[];autosize=1;strokeColor=none;fillColor=none;" vertex="1" parent="WIyWlLk6GJQsqaUBKTNV-1">
          <mxGeometry x="395" y="788" width="30" height="30" as="geometry" />
        </mxCell>
        <mxCell id="wG51ySAx-2tBN8mzCaiR-77" value="F" style="text;html=1;align=center;verticalAlign=middle;resizable=0;points=[];autosize=1;strokeColor=none;fillColor=none;" vertex="1" parent="WIyWlLk6GJQsqaUBKTNV-1">
          <mxGeometry x="395" y="938" width="30" height="30" as="geometry" />
        </mxCell>
        <mxCell id="wG51ySAx-2tBN8mzCaiR-78" value="T" style="text;html=1;align=center;verticalAlign=middle;resizable=0;points=[];autosize=1;strokeColor=none;fillColor=none;" vertex="1" parent="WIyWlLk6GJQsqaUBKTNV-1">
          <mxGeometry x="1015" y="1258" width="30" height="30" as="geometry" />
        </mxCell>
        <mxCell id="wG51ySAx-2tBN8mzCaiR-79" value="F" style="text;html=1;align=center;verticalAlign=middle;resizable=0;points=[];autosize=1;strokeColor=none;fillColor=none;" vertex="1" parent="WIyWlLk6GJQsqaUBKTNV-1">
          <mxGeometry x="855" y="1258" width="30" height="30" as="geometry" />
        </mxCell>
        <mxCell id="wG51ySAx-2tBN8mzCaiR-82" value="(P)" style="text;html=1;align=center;verticalAlign=middle;resizable=0;points=[];autosize=1;strokeColor=none;fillColor=none;" vertex="1" parent="WIyWlLk6GJQsqaUBKTNV-1">
          <mxGeometry x="450" y="188" width="40" height="30" as="geometry" />
        </mxCell>
        <mxCell id="wG51ySAx-2tBN8mzCaiR-83" value="(C)" style="text;html=1;align=center;verticalAlign=middle;resizable=0;points=[];autosize=1;strokeColor=none;fillColor=none;" vertex="1" parent="WIyWlLk6GJQsqaUBKTNV-1">
          <mxGeometry x="450" y="318" width="40" height="30" as="geometry" />
        </mxCell>
        <mxCell id="wG51ySAx-2tBN8mzCaiR-84" value="(T)" style="text;html=1;align=center;verticalAlign=middle;resizable=0;points=[];autosize=1;strokeColor=none;fillColor=none;" vertex="1" parent="WIyWlLk6GJQsqaUBKTNV-1">
          <mxGeometry x="450" y="458" width="40" height="30" as="geometry" />
        </mxCell>
      </root>
    </mxGraphModel>
  </diagram>
</mxfile>
